# xmcd
#
# Track frame offsets:
#	150
#	14127
#	28452
#	39943
#	52880
#	65288
#	77740
#	90553
#	101715
#	113527
#	124781
#	137029
#	147326
#	158187
#	168764
#	179904
#	189539
#	201581
#	212100
#	222325
#	234971
#	245025
#	255881
#
# Disc length: 3575 seconds
#
# Revision: 1
# Processed by: cddbd v1.5.2PL0 Copyright (c) Steve Scherf et al.
# Submitted via: audiograbber 1.83.01
#
DISCID=4e0df517
DTITLE=Lil' Son Jackson - Vol. 2  1950-1952
DYEAR=2006
DGENRE=Blues
TTITLE0=New Year's Resolution
TTITLE1=Young Woman's Blues
TTITLE2=Mr. Blues
TTITLE3=Time Changes Things
TTITLE4=Wondering Blues
TTITLE5=Restless Blues
TTITLE6=All Alone
TTITLE7=Everybody's Blues
TTITLE8=Travelin' Woman
TTITLE9=Red Light
TTITLE10=Aching Heart
TTITLE11=Upstairs Boogie
TTITLE12=All My Love
TTITLE13=My Little Girl
TTITLE14=Big Gun Blues
TTITLE15=Get High Everybody
TTITLE16=Let Me Down Easy
TTITLE17=My Younger Days
TTITLE18=I Wish I Could Go Home
TTITLE19=Black And Brown
TTITLE20=Journey Back Home
TTITLE21=Sad Letter Blues
TTITLE22=Rockin' And Rollin' #2
EXTD=
EXTT0=
EXTT1=
EXTT2=
EXTT3=
EXTT4=
EXTT5=
EXTT6=
EXTT7=
EXTT8=
EXTT9=
EXTT10=
EXTT11=
EXTT12=
EXTT13=
EXTT14=
EXTT15=
EXTT16=
EXTT17=
EXTT18=
EXTT19=
EXTT20=
EXTT21=
EXTT22=
PLAYORDER=
